With: Ben Affleck, Samuel L. Jackson and Sydney Pollack

De ambitieuze advocaat Gavin Banek moet een belangrijk dossier afleveren bij de rechtbank. De wanhopige vader Doyle Gibson heeft net een nieuw huis voor zijn ex-vrouw en twee zoontjes gekocht in de hoop ze terug te krijgen. Wanneer de twee in een verkeersongeluk met elkaar terecht komen raakt Banek z'n dossier kwijt, en mist Gibson een belangrijke afspraak bij de rechtbank. De ruzie die op het ongeluk volgt escaleert aangezien Banek wanhopig is om zijn dossier terug te krijgen.

The story of what happens one day in New York when a young lawyer and a businessman share a small automobile accident on F.D.R. Drive and their mutual road rage escalates into a feud. 

------------------------ Dutch Friends ------------------------
---------------------------------------------------------------
- Bezoek ook eens mijn vrienden op:  http://www.Film-Test.nl --
----- voor mijn Nederlandse Sync. ondertitels ---- en meer ----
------- http://www.Film-Test.nl ---- voor Films en meer -------
---------------------------------------------------------------

General:

Complete name                    : Changing LanesChanging Lanes.avi
Format                           : AVI
Format/Info                      : Audio Video Interleave
File size                        : 1.52 GiB
Duration                         : 1h 34mn
Overall bit rate                 : 2 294 Kbps

Video:

Format                           : MPEG-4 Visual
Format profile                   : Simple@L3
Format settings, BVOP            : No
Format settings, QPel            : No
Format settings, GMC             : No warppoints
Format settings, Matrix          : Default (H.263)
Codec ID                         : XVID
Codec ID/Hint                    : XviD
Duration                         : 1h 34mn
Bit rate                         : 1 835 Kbps
Width                            : 720 pixels
Height                           : 304 pixels
Display aspect ratio             : 2.35:1
Frame rate                       : 25.000 fps
Color space                      : YUV
Chroma subsampling               : 4:2:0
Bit depth                        : 8 bits
Scan type                        : Progressive
Compression mode                 : Lossy
Bits/(Pixel*Frame)               : 0.335
Stream size                      : 1.21 GiB (80%)
Writing library                  : XviD 1.1.2 (UTC 2006-11-01)

Audio:

Format                           : AC-3
Format/Info                      : Audio Coding 3
Mode extension                   : CM (complete main)
Codec ID                         : 2000
Duration                         : 1h 34mn
Bit rate mode                    : Constant
Bit rate                         : 448 Kbps
Channel(s)                       : 6 channels
Channel positions                : Front: L C R, Side: L R, LFE
Sampling rate                    : 48.0 KHz
Bit depth                        : 16 bits
Compression mode                 : Lossy
Stream size                      : 303 MiB (20%)
Alignment                        : Aligned on interleaves
Interleave, duration             : 32 ms (0.80 video frame)
Interleave, preload duration     : 64 ms

